<?xml version="1.0" encoding="utf-8"?>
<!-- Generator: Adobe Illustrator 27.3.1, SVG Export Plug-In . SVG Version: 6.00 Build 0)  -->
<svg version="1.1" id="Camada_1" xmlns="http://www.w3.org/2000/svg" xmlns:xlink="http://www.w3.org/1999/xlink" x="0px" y="0px"
	 viewBox="0 0 2300.32 1080" style="enable-background:new 0 0 2300.32 1080;" xml:space="preserve">
<style type="text/css">
	.st0{fill:#042F18;}
	.st1{fill:#33DF79;}
</style>
<g>
	<path class="st0" d="M656.49,796h-412c-27.61,0-50-22.39-50-50V334c0-27.61,22.39-50,50-50h412c27.61,0,50,22.39,50,50v412
		C706.49,773.61,684.11,796,656.49,796z"/>
	<g>
		<path class="st1" d="M450.84,522.87c-1.3-9.36-2.43-17.72-3.63-26.08c-4.44-30.95-8.89-61.91-13.38-92.85
			c-0.44-3,0.56-4.31,3.67-4.28c8.98,0.09,17.97-0.1,26.94,0.19c1.3,0.04,3.46,2.03,3.66,3.35c4.18,27.97,8.13,55.97,12.12,83.96
			c1.45,10.21,2.96,20.42,4.25,30.65c0.48,3.83,2.09,5.18,6.1,5.16c31.1-0.17,62.21-0.09,93.31-0.08c6.63,0,6.66,0.03,6.67,6.62
			c0.02,7.67-0.1,15.33,0.04,23c0.06,3.42-1.24,4.84-4.69,4.68c-3.82-0.18-7.65-0.03-11.47-0.03c-85,0-169.99,0.01-254.99-0.01
			c-9.74,0-8.98,1.03-9.02-9.26c-0.02-5.83-0.01-11.67,0-17.5c0.01-7.47,0.02-7.49,7.3-7.49c41.75,0,83.5,0,125.25,0
			C445.26,522.87,447.56,522.87,450.84,522.87z"/>
		<path class="st1" d="M416.48,593.22c10.48,0,21.08-0.12,31.66,0.19c1.04,0.03,2.59,2.65,2.92,4.27
			c3.88,18.88,7.56,37.79,11.31,56.69c1.61,8.13,3.28,16.26,5.03,24.95c-1.36,0.37-2.52,0.95-3.68,0.96
			c-8.97,0.08-17.94,0.02-26.91,0.07c-2.52,0.01-3.78-0.81-4.32-3.57c-5.35-27.37-10.85-54.72-16.3-82.07
			C416.14,594.4,416.31,594.06,416.48,593.22z"/>
	</g>
	<g>
		<path class="st1" d="M798.27,709.38V388.53h141.58c62.82,0,102.92,45.91,102.92,103.89c0,58.47-40.11,100.51-102.92,100.51h-74.42
			v116.46H798.27z M929.22,538.33c38.66,0,54.6-19.81,54.6-47.84c0-26.58-15.95-46.39-54.6-46.39h-63.78v94.23H929.22z"/>
		<path class="st1" d="M1057.75,709.38V384.66h62.82v324.72H1057.75z"/>
		<path class="st1" d="M1295.97,709.38c-1.93-5.8-3.38-14.01-3.87-21.26c-14.98,16.43-40.11,27.54-72,27.54
			c-54.12,0-79.25-26.58-79.25-65.23c0-68.62,45.91-76.35,109.21-85.05c31.41-4.35,40.11-10.63,40.11-27.06
			c0-15.46-15.46-24.64-40.11-24.64c-28.51,0-40.11,14.01-43.01,35.27h-58.47c0.97-49.29,28.03-83.6,104.37-83.6
			c75.38,0,101.48,33.83,101.48,93.74v150.28H1295.97z M1291.63,592.93c-6.28,6.28-17.4,9.66-40.59,14.01
			c-35.76,6.76-47.36,16.91-47.36,37.21c0,17.88,10.63,26.58,30.44,26.58c32.38,0,56.54-23.68,57.02-51.7L1291.63,592.93z"/>
		<path class="st1" d="M1534.19,709.38v-144c0-36.72-10.63-46.87-40.59-46.87c-32.86,0-48.8,18.36-48.8,54.6v136.27h-62.82V471.64
			h59.92v34.79c14.5-26.58,38.66-41.07,76.83-41.07c45.42,0,78.76,27.54,78.76,79.25v164.78H1534.19z"/>
		<path class="st1" d="M1777.24,709.38v-144c0-36.72-10.63-46.87-40.59-46.87c-32.86,0-48.8,18.36-48.8,54.6v136.27h-62.82V471.64
			h59.92v34.79c14.5-26.58,38.66-41.07,76.83-41.07c45.42,0,78.76,27.54,78.76,79.25v164.78H1777.24z"/>
		<path class="st1" d="M1862.77,590.51c0-75.38,46.87-125.15,122.25-125.15c74.42,0,120.8,49.29,120.8,125.15
			c0,75.38-46.87,125.15-120.8,125.15C1908.19,715.67,1862.77,664.44,1862.77,590.51z M2042.52,590.51c0-48.32-19.33-72-57.5-72
			s-57.5,23.68-57.5,72s19.33,72.48,57.5,72.48S2042.52,638.83,2042.52,590.51z"/>
	</g>
</g>
</svg>
