<svg
              width="129"
              height="28"
              viewBox="0 0 129 28"
              fill="none"
              xmlns="http://www.w3.org/2000/svg"
            >
              <g clip-path="url(#clip0_3202_51701)">
                <path
                  d="M40.1083 8.95371C38.9102 8.95371 37.9973 9.42038 37.3412 10.3245C36.685 11.2287 36.3712 12.512 36.3712 14.1454C36.3712 17.5579 37.6264 19.2495 40.1368 19.2495C41.1923 19.2495 42.4475 18.987 43.9595 18.4329V21.1454C42.7328 21.6704 41.3635 21.9329 39.8516 21.9329C37.6835 21.9329 36.0004 21.262 34.8593 19.9204C33.7182 18.5787 33.1191 16.6245 33.1191 14.1162C33.1191 12.512 33.4044 11.1412 33.975 9.94538C34.5455 8.74954 35.3443 7.84538 36.4283 7.20371C37.4838 6.56204 38.739 6.24121 40.1654 6.24121C41.6202 6.24121 43.0751 6.59121 44.53 7.32038L43.503 9.94538C42.9325 9.68288 42.3905 9.44954 41.8199 9.24538C41.2209 9.04121 40.6503 8.95371 40.1083 8.95371Z"
                  fill="#858782"
                ></path>
                <path
                  d="M53.4322 21.7581L52.8331 20.1831H52.7475C52.234 20.854 51.692 21.3206 51.1215 21.5831C50.5794 21.8456 49.8377 21.9623 48.9534 21.9623C47.8694 21.9623 46.985 21.6415 46.3574 20.9998C45.7298 20.3581 45.416 19.454 45.416 18.2581C45.416 17.004 45.8439 16.0998 46.6997 15.5165C47.5556 14.9331 48.8393 14.6123 50.5509 14.5248L52.5478 14.4665V13.9415C52.5478 12.7456 51.9487 12.1623 50.7791 12.1623C49.8663 12.1623 48.7822 12.454 47.5556 13.0081L46.5286 10.8498C47.8408 10.1498 49.2957 9.7998 50.8932 9.7998C52.4337 9.7998 53.6033 10.1498 54.4306 10.8206C55.2579 11.4915 55.6573 12.5415 55.6573 13.9415V21.729L53.4322 21.7581ZM52.4908 16.3331L51.2926 16.3623C50.3797 16.3915 49.7236 16.5665 49.2672 16.8581C48.8108 17.179 48.6111 17.6456 48.6111 18.2581C48.6111 19.1623 49.1246 19.5998 50.123 19.5998C50.8362 19.5998 51.4353 19.3956 51.8632 18.9581C52.2911 18.5206 52.5193 17.9665 52.5193 17.2665V16.3331H52.4908Z"
                  fill="#858782"
                ></path>
                <path
                  d="M68.5214 21.7584H65.412V14.9334C65.412 14.0876 65.2693 13.4459 64.9841 13.0376C64.6988 12.6292 64.2138 12.3959 63.5862 12.3959C62.7019 12.3959 62.0743 12.6876 61.7034 13.3001C61.3041 13.8834 61.1329 14.8751 61.1329 16.2751V21.7876H58.0234V10.0917H60.4197L60.8476 11.5792H61.0188C61.3611 11.0251 61.8461 10.5876 62.4451 10.2959C63.0442 10.0042 63.7574 9.8584 64.5276 9.8584C65.8684 9.8584 66.8669 10.2376 67.5515 10.9667C68.2362 11.6959 68.5785 12.7751 68.5785 14.1459V21.7584H68.5214Z"
                  fill="#858782"
                ></path>
                <path
                  d="M78.1646 21.7581L77.5655 20.1831H77.4799C76.9664 20.854 76.4244 21.3206 75.8539 21.5831C75.3119 21.8456 74.5701 21.9623 73.6858 21.9623C72.6018 21.9623 71.7174 21.6415 71.0898 20.9998C70.4622 20.3581 70.1484 19.454 70.1484 18.2581C70.1484 17.004 70.5763 16.0998 71.4322 15.5165C72.288 14.9331 73.5717 14.6123 75.2833 14.5248L77.2802 14.4665V13.9415C77.2802 12.7456 76.6812 12.1623 75.5115 12.1623C74.5987 12.1623 73.5146 12.454 72.288 13.0081L71.261 10.8498C72.5732 10.1498 74.0281 9.7998 75.6257 9.7998C77.1661 9.7998 78.3357 10.1498 79.163 10.8206C79.9903 11.4915 80.3897 12.5415 80.3897 13.9415V21.729L78.1646 21.7581ZM77.2232 16.3331L76.025 16.3623C75.1122 16.3915 74.456 16.5665 73.9996 16.8581C73.5432 17.179 73.3435 17.6456 73.3435 18.2581C73.3435 19.1623 73.857 19.5998 74.8554 19.5998C75.5686 19.5998 76.1677 19.3956 76.5956 18.9581C77.0235 18.5206 77.2517 17.9665 77.2517 17.2665L77.2232 16.3331Z"
                  fill="#858782"
                ></path>
                <path
                  d="M85.838 21.7584H82.7285V5.4834H85.838V21.7584Z"
                  fill="#858782"
                ></path>
                <path
                  d="M93.1692 19.483C93.7112 19.483 94.3673 19.3663 95.1376 19.1038V21.4663C94.3673 21.8163 93.3974 21.9913 92.2849 21.9913C91.0297 21.9913 90.1168 21.6705 89.5463 21.0288C88.9757 20.3872 88.6904 19.4247 88.6904 18.1122V12.483H87.207V11.1413L88.9187 10.0622L89.8315 7.58301H91.8284V10.0622H94.9949V12.4538H91.7999V18.083C91.7999 18.5497 91.914 18.8705 92.1708 19.0747C92.4275 19.3663 92.7413 19.483 93.1692 19.483Z"
                  fill="#858782"
                ></path>
                <path
                  d="M101.814 22.0212C99.9598 22.0212 98.5335 21.4962 97.5065 20.4753C96.4795 19.4253 95.9375 17.967 95.9375 16.0712C95.9375 14.117 96.4225 12.6003 97.3639 11.5212C98.3338 10.442 99.646 9.91699 101.329 9.91699C102.955 9.91699 104.21 10.3837 105.095 11.317C106.008 12.2503 106.436 13.5628 106.436 15.2253V16.7712H99.047C99.0755 17.6753 99.3322 18.3753 99.8457 18.9003C100.331 19.3962 101.015 19.6587 101.9 19.6587C102.584 19.6587 103.24 19.5712 103.84 19.4253C104.467 19.2795 105.095 19.0462 105.751 18.7253V21.2045C105.209 21.4962 104.61 21.7003 104.011 21.817C103.44 21.9628 102.698 22.0212 101.814 22.0212ZM101.358 12.1628C100.702 12.1628 100.188 12.367 99.8172 12.8045C99.4464 13.242 99.2181 13.8545 99.1611 14.642H103.526C103.526 13.8545 103.298 13.242 102.927 12.8045C102.556 12.3962 102.014 12.1628 101.358 12.1628Z"
                  fill="#858782"
                ></path>
                <path
                  d="M113.083 22.0212C109.517 22.0212 107.748 20.0378 107.748 16.042C107.748 14.0587 108.233 12.542 109.203 11.492C110.173 10.442 111.571 9.91699 113.368 9.91699C114.68 9.91699 115.878 10.1795 116.934 10.7045L116.021 13.1837C115.536 12.9795 115.08 12.8045 114.652 12.6878C114.224 12.5712 113.796 12.4837 113.396 12.4837C111.77 12.4837 110.972 13.6503 110.972 16.0128C110.972 18.2878 111.77 19.4545 113.396 19.4545C113.995 19.4545 114.566 19.367 115.051 19.2212C115.564 19.0462 116.078 18.8128 116.591 18.4628V21.2045C116.078 21.5253 115.564 21.7587 115.051 21.8753C114.509 21.9628 113.853 22.0212 113.083 22.0212Z"
                  fill="#858782"
                ></path>
                <path
                  d="M128.999 21.817H125.89V14.992C125.89 13.3003 125.262 12.4545 124.035 12.4545C123.151 12.4545 122.524 12.7462 122.153 13.3587C121.753 13.9712 121.582 14.9628 121.582 16.3045V21.817H118.473V5.54199H121.582V8.86699C121.582 9.12949 121.554 9.74199 121.497 10.6753L121.411 11.6087H121.582C122.267 10.4712 123.379 9.88783 124.891 9.88783C126.232 9.88783 127.259 10.267 127.944 10.9962C128.628 11.7253 128.999 12.8045 128.999 14.1753V21.817Z"
                  fill="#858782"
                ></path>
                <path
                  d="M13.6931 28C21.2555 28 27.3861 21.732 27.3861 14C27.3861 6.26801 21.2555 0 13.6931 0C6.13059 0 0 6.26801 0 14C0 21.732 6.13059 28 13.6931 28Z"
                  fill="#858782"
                ></path>
                <path
                  d="M21.71 8.19629H5.67773V19.8046H18.8858V11.113H21.71V8.19629Z"
                  fill="#FBF7EA"
                ></path>
                <path
                  d="M8.50195 11.1123H16.0331V19.804L13.2089 16.8873H8.50195V11.1123Z"
                  fill="#858782"
                ></path>
              </g>
              <defs>
                <clippath id="clip0_3202_51701">
                  <rect width="129" height="28" fill="white"></rect>
                </clippath>
              </defs>
            </svg>