<svg
              width="126"
              height="18"
              viewBox="0 0 126 18"
              fill="none"
              xmlns="http://www.w3.org/2000/svg"
            >
              <g clip-path="url(#clip0_3202_51715)">
                <path
                  d="M54.9703 8.6551C56.4697 6.20403 57.9437 3.88063 59.3414 1.53169C59.8751 0.638073 60.5612 0.152967 61.6286 0.229563C62.7976 0.306158 63.5346 0.969988 63.5346 2.16999C63.56 6.71467 63.56 11.2849 63.5346 15.8296C63.5346 17.004 62.6706 17.8211 61.6286 17.7955C60.6121 17.77 59.7988 16.9274 59.7988 15.7274C59.748 13.2508 59.7734 10.7998 59.7734 8.32318C59.7734 8.09339 59.7734 7.86361 59.7734 7.3019C58.6044 9.11467 57.6387 10.6211 56.6222 12.1274C55.5294 13.787 54.2333 13.787 53.1405 12.1274C52.1748 10.6721 51.2599 9.2168 50.1671 7.55722C50.0909 8.0168 50.0401 8.27212 50.0401 8.5019C50.0401 10.8764 50.0401 13.2764 50.0401 15.6508C50.0401 16.9274 49.2522 17.77 48.1595 17.7955C47.0921 17.7955 46.2789 16.9785 46.2789 15.6764C46.2535 11.2594 46.2789 6.8168 46.2789 2.39978C46.2789 1.40403 46.6601 0.612541 47.6512 0.357222C48.7694 0.0508392 49.7605 0.280626 50.4213 1.35297C51.6919 3.42105 52.9372 5.48914 54.2079 7.53169C54.4366 7.86361 54.6653 8.19552 54.9703 8.6551Z"
                  fill="#858782"
                ></path>
                <path
                  d="M107.447 9.03879C107.447 3.98347 111.437 0.0515525 116.672 0.000488632C121.831 -0.0505752 125.974 3.90687 125.999 8.93666C126.024 13.9409 121.78 18.0516 116.622 18.0005C111.463 17.9494 107.473 14.043 107.447 9.03879ZM121.755 9.01326C121.755 5.92389 119.519 3.57496 116.596 3.54943C113.75 3.54943 111.564 5.87283 111.564 8.93666C111.564 11.975 113.724 14.3494 116.596 14.4005C119.519 14.426 121.755 12.1281 121.755 9.01326Z"
                  fill="#858782"
                ></path>
                <path
                  d="M85.39 8.98736C85.3646 13.9916 81.3492 17.9746 76.2411 18.0001C71.1076 18.0257 67.016 13.9916 67.0669 8.91076C67.0923 3.90651 71.1839 -0.0254083 76.292 0.000123639C81.4509 0.0256556 85.4154 3.93204 85.39 8.98736ZM71.0568 8.8597C71.006 11.9746 73.1661 14.3235 76.1395 14.4001C79.1129 14.4767 81.3492 12.1788 81.3747 9.03842C81.4001 5.94906 79.1637 3.57459 76.2157 3.54906C73.2932 3.52353 71.1076 5.77034 71.0568 8.8597Z"
                  fill="#858782"
                ></path>
                <path
                  d="M12.6296 10.9531C11.8926 10.9531 11.1302 10.9786 10.3678 10.9531C9.35125 10.902 8.61426 10.3914 8.63967 9.31904C8.63967 8.2467 9.37667 7.71053 10.3932 7.685C11.8418 7.63394 13.2649 7.63394 14.7135 7.685C15.9079 7.73606 16.6195 8.42543 16.6703 9.62543C16.7212 11.0807 16.8482 12.5361 16.6195 13.9659C16.4924 14.7829 15.9079 15.7786 15.2472 16.2127C12.4517 17.8722 9.42749 18.485 6.22539 17.5148C2.33713 16.3148 -0.178801 12.7914 -0.000906662 8.73181C0.202401 4.44245 3.17578 0.944574 7.26735 0.22968C9.75787 -0.229894 12.1721 0.0509569 14.4085 1.27649C15.8317 2.06798 16.2637 3.08925 15.7046 4.13606C15.0947 5.23394 13.9257 5.38713 12.5025 4.54457C9.02088 2.45096 5.20886 3.85521 4.37021 7.58287C3.91277 9.65096 4.26856 11.5914 5.89502 13.0978C7.47065 14.5786 9.37667 14.7318 11.3589 14.1701C12.9346 13.7105 13.1887 13.0212 12.6296 10.9531Z"
                  fill="#858782"
                ></path>
                <path
                  d="M88.8707 8.88468C88.8707 6.76553 88.8453 4.62085 88.8707 2.5017C88.8961 1.04638 89.5314 0.331487 90.9546 0.331487C92.9368 0.305955 94.9445 0.254892 96.9267 0.433615C101.654 0.867657 104.957 4.51872 104.856 9.08893C104.754 13.7102 101.272 17.2847 96.5201 17.54C94.6649 17.6421 92.7843 17.6166 90.9292 17.5911C89.5822 17.5655 88.8961 16.8762 88.8961 15.523C88.8453 13.3272 88.8707 11.106 88.8707 8.88468ZM92.7843 14.0932C94.055 14.0932 95.2749 14.2208 96.4693 14.0677C99.1123 13.7357 100.713 11.7953 100.764 9.08893C100.815 6.40808 99.2394 4.28893 96.698 3.90596C95.4273 3.7017 94.1313 3.88042 92.7843 3.88042C92.7843 7.3017 92.7843 10.6719 92.7843 14.0932Z"
                  fill="#858782"
                ></path>
                <path
                  d="M33.1654 14.2724C35.5288 14.2724 37.6127 14.2724 39.6966 14.2724C40.1286 14.2724 40.5353 14.2724 40.9673 14.2724C42.0092 14.3234 42.6446 14.8341 42.7208 15.9064C42.7971 16.8766 42.0601 17.566 40.9165 17.5915C39.5695 17.617 38.1972 17.5915 36.8503 17.5915C34.6139 17.5915 32.3521 17.6426 30.1157 17.5405C29.4804 17.5149 28.5401 17.1575 28.3368 16.6979C28.0572 16.0851 28.3368 15.1915 28.4639 14.4256C28.5147 14.1702 28.7942 13.9405 28.9975 13.7107C31.8184 10.417 34.6393 7.14896 37.6635 3.62556C36.7486 3.62556 36.0371 3.62556 35.3255 3.62556C33.6736 3.62556 32.0217 3.65109 30.3699 3.62556C29.0992 3.60003 28.3622 2.98726 28.3622 1.99152C28.3368 0.944709 29.0992 0.280879 30.4461 0.280879C33.7499 0.255347 37.0536 0.280879 40.3574 0.280879C41.2977 0.280879 42.365 0.331943 42.5683 1.32769C42.7208 2.11918 42.4921 3.24258 41.9838 3.88088C40.1286 6.25535 38.0956 8.47662 36.1387 10.7745C35.1984 11.8979 34.2835 12.9702 33.1654 14.2724Z"
                  fill="#858782"
                ></path>
                <path
                  d="M20.484 9.03814C20.484 6.81687 20.4585 4.62112 20.484 2.39985C20.484 0.995591 21.1955 0.204102 22.39 0.204102C23.5844 0.204102 24.3468 0.995591 24.3722 2.34878C24.3976 6.7658 24.3976 11.2084 24.3722 15.6254C24.3722 16.953 23.5336 17.7956 22.39 17.7956C21.2718 17.7701 20.5094 16.953 20.5094 15.6764C20.4585 13.4552 20.484 11.2594 20.484 9.03814Z"
                  fill="#858782"
                ></path>
              </g>
              <defs>
                <clippath id="clip0_3202_51715">
                  <rect width="126" height="18" fill="white"></rect>
                </clippath>
              </defs>
            </svg>