<svg
                  width="20"
                  height="19"
                  viewBox="0 0 20 19"
                  fill="none"
                  xmlns="http://www.w3.org/2000/svg"
                >
                  <g clip-path="url(#clip0_3202_52132)">
                    <path
                      d="M9.25451 4.52215C6.63947 4.52215 4.53017 6.63146 4.53017 9.2465C4.53017 11.8615 6.63947 13.9708 9.25451 13.9708C11.8696 13.9708 13.9789 11.8615 13.9789 9.2465C13.9789 6.63146 11.8696 4.52215 9.25451 4.52215ZM9.25451 12.3179C7.56461 12.3179 6.18307 10.9405 6.18307 9.2465C6.18307 7.55248 7.56049 6.17506 9.25451 6.17506C10.9485 6.17506 12.326 7.55248 12.326 9.2465C12.326 10.9405 10.9444 12.3179 9.25451 12.3179ZM15.274 4.3289C15.274 4.94155 14.7806 5.43084 14.1721 5.43084C13.5595 5.43084 13.0702 4.93743 13.0702 4.3289C13.0702 3.72037 13.5636 3.22697 14.1721 3.22697C14.7806 3.22697 15.274 3.72037 15.274 4.3289ZM18.403 5.44729C18.3332 3.97118 17.996 2.66366 16.9146 1.5864C15.8373 0.509133 14.5298 0.171973 13.0537 0.0979624C11.5324 0.0116167 6.97252 0.0116167 5.45119 0.0979624C3.9792 0.167861 2.67168 0.505021 1.5903 1.58229C0.508927 2.65955 0.175879 3.96707 0.101869 5.44317C0.0155229 6.9645 0.0155229 11.5244 0.101869 13.0457C0.171768 14.5218 0.508927 15.8293 1.5903 16.9066C2.67168 17.9839 3.97509 18.321 5.45119 18.395C6.97252 18.4814 11.5324 18.4814 13.0537 18.395C14.5298 18.3251 15.8373 17.988 16.9146 16.9066C17.9919 15.8293 18.329 14.5218 18.403 13.0457C18.4894 11.5244 18.4894 6.96862 18.403 5.44729ZM16.4377 14.6781C16.1169 15.4839 15.4961 16.1048 14.6861 16.4296C13.4731 16.9107 10.5949 16.7997 9.25451 16.7997C7.9141 16.7997 5.0318 16.9066 3.82296 16.4296C3.01706 16.1089 2.3962 15.4881 2.07137 14.6781C1.5903 13.4651 1.70132 10.5869 1.70132 9.2465C1.70132 7.90608 1.59442 5.02378 2.07137 3.81494C2.39209 3.00905 3.01295 2.38818 3.82296 2.06336C5.03591 1.58229 7.9141 1.6933 9.25451 1.6933C10.5949 1.6933 13.4772 1.5864 14.6861 2.06336C15.492 2.38407 16.1128 3.00494 16.4377 3.81494C16.9187 5.02789 16.8077 7.90608 16.8077 9.2465C16.8077 10.5869 16.9187 13.4692 16.4377 14.6781Z"
                      fill="#454843"
                    ></path>
                  </g>
                  <defs>
                    <clippath id="clip0_3202_52132">
                      <rect
                        width="19.3846"
                        height="18.4615"
                        fill="white"
                      ></rect>
                    </clippath>
                  </defs></svg>