<svg
                  width="18"
                  height="19"
                  viewBox="0 0 18 19"
                  fill="none"
                  xmlns="http://www.w3.org/2000/svg"
                >
                  <g clip-path="url(#clip0_3231_915)">
                    <path
                      d="M0 1.39086C0 0.651637 0.597656 0.0380859 1.33594 0.0380859H16.6641C17.4023 0.0380859 18 0.644245 18 1.39086V17.6093C18 18.3485 17.4023 18.9621 16.6641 18.9621H1.33594C0.597656 18.9621 0 18.3559 0 17.6093V1.39086Z"
                      fill="#454843"
                    ></path>
                    <path
                      d="M5.4707 15.8719V7.35615H2.77773V15.8719H5.4707ZM4.12773 6.18818C5.06289 6.18818 5.64648 5.53767 5.64648 4.71714C5.63242 3.88182 5.06289 3.24609 4.14883 3.24609C3.22773 3.24609 2.62305 3.88182 2.62305 4.72453C2.62305 5.53767 3.20664 6.19558 4.11367 6.19558H4.12773V6.18818ZM6.96133 15.8719H9.6543V11.1262C9.6543 10.8674 9.67539 10.6087 9.7457 10.4313C9.93555 9.92863 10.3785 9.39639 11.1238 9.39639C12.1012 9.39639 12.4879 10.18 12.4879 11.3184V15.8793H15.1879V11.0005C15.1879 8.38366 13.859 7.15656 12.0941 7.15656C11.5996 7.13648 11.1093 7.26047 10.6775 7.51484C10.2457 7.76921 9.88919 8.14407 9.64727 8.59804H9.66133V7.35615H6.96133C6.99648 8.15451 6.96133 15.8719 6.96133 15.8719Z"
                      fill="white"
                    ></path>
                  </g>
                  <defs>
                    <clippath id="clip0_3231_915">
                      <rect width="18" height="19" fill="white"></rect>
                    </clippath>
                  </defs></svg>