<svg
              width="105"
              height="25"
              viewBox="0 0 105 25"
              fill="none"
              xmlns="http://www.w3.org/2000/svg"
            >
              <path
                d="M33.9427 19.8744C32.6136 19.8744 31.3032 19.8744 29.949 19.8744C29.9929 19.6048 30.0368 19.354 30.0932 19.0468C29.9616 19.1158 29.8675 19.166 29.7735 19.2098C27.8363 20.144 25.8426 20.4324 23.7674 19.7553C22.6702 19.3979 22.012 18.8901 21.1781 17.8243C20.7455 18.0876 20.3255 18.3697 19.8741 18.608C18.3005 19.423 16.6265 19.8932 14.8648 20.0687C13.5796 20.2004 12.3006 20.1691 11.053 19.7929C10.169 19.5296 9.37906 19.097 8.76466 18.3885C8.73958 18.3572 8.70196 18.3384 8.65808 18.3008C7.84932 19.028 6.91518 19.5296 5.88699 19.8368C4.77103 20.1753 3.63627 20.3007 2.5015 19.9308C1.05953 19.4606 0.357357 18.2882 0.564248 16.8086C0.965492 14.0125 1.61751 11.2665 2.24445 8.51419C2.3385 8.11295 2.43254 7.71171 2.53912 7.25404C1.68648 7.25404 0.865181 7.25404 0 7.25404C0.100311 6.72114 0.181813 6.24466 0.275855 5.76819C0.351088 5.39202 0.445129 5.01585 0.495285 4.63342C0.526632 4.39518 0.645751 4.35129 0.852642 4.35129C1.55482 4.35756 2.25072 4.34503 2.9529 4.35756C3.18487 4.36383 3.27891 4.27606 3.3416 4.0629C3.58611 3.19145 3.84316 2.32 4.11901 1.45482C4.1629 1.32316 4.30083 1.16643 4.43248 1.12881C5.69891 0.752644 6.97787 0.395287 8.25056 0.0379295C8.28818 0.0253906 8.33207 0.0316601 8.44492 0.0253906C8.01233 1.47363 7.58601 2.89052 7.14715 4.35129C7.29761 4.35129 7.41046 4.35129 7.52331 4.35129C8.2631 4.35129 9.00916 4.35756 9.74896 4.35129C9.98093 4.35129 10.0624 4.42653 10.0123 4.67104C9.88062 5.37948 9.76777 6.08793 9.65492 6.79637C9.58595 7.25404 9.59222 7.25404 9.14082 7.25404C8.33834 7.25404 7.52958 7.26031 6.72709 7.24777C6.51393 7.24777 6.41989 7.29793 6.37601 7.52989C5.88072 9.87466 5.37917 12.2069 4.89642 14.5391C4.80865 14.978 4.78357 15.4294 4.75222 15.8745C4.67072 17.003 5.47948 17.2977 6.31331 17.0908C6.75844 16.9842 7.16595 16.7209 7.57347 16.4952C7.65497 16.4513 7.70512 16.2695 7.70512 16.1566C7.69885 15.4168 7.61735 14.6708 7.65497 13.9372C7.80544 11.3292 8.52015 8.90917 10.2254 6.86533C11.542 5.28544 13.2222 4.32622 15.2849 4.10052C16.6641 3.95005 18.0121 4.01902 19.3036 4.58953C20.8709 5.27917 21.3976 6.67725 21.1907 8.20699C20.8458 10.7273 19.2659 12.1442 16.9275 12.7711C15.799 13.0721 14.614 13.1975 13.4542 13.3605C12.8335 13.4482 12.2066 13.442 11.5796 13.4984C11.4919 13.5047 11.3539 13.63 11.3477 13.7053C11.3289 14.3385 11.2599 14.9842 11.3602 15.5986C11.5357 16.6582 12.3633 17.3227 13.4416 17.4669C14.4134 17.5986 15.3538 17.4544 16.288 17.2162C17.6422 16.8713 18.9086 16.3259 20.1123 15.6112C20.3067 15.4921 20.3819 15.3604 20.3756 15.1347C20.3255 13.536 20.5261 11.9686 21.0778 10.464C22.2 7.42331 24.4069 5.61145 27.5228 4.86539C28.7265 4.57699 29.949 4.47041 31.1841 4.53938C31.2531 4.54565 31.3221 4.55819 31.4286 4.57072C31.2782 5.20394 31.1402 5.82461 30.9898 6.43901C30.9145 6.75249 30.8205 7.06596 30.7641 7.37943C30.7265 7.59886 30.6199 7.65528 30.4067 7.66155C29.4851 7.68036 28.576 7.80575 27.7171 8.16311C26.062 8.84647 25.1404 10.1442 24.7517 11.8307C24.5699 12.6207 24.4758 13.4357 24.4382 14.2445C24.3755 15.8181 25.2344 16.7773 26.8018 16.9654C28.1748 17.1284 29.4224 16.7397 30.5823 16.0312C30.6951 15.9623 30.7954 15.7993 30.8268 15.6613C31.3221 13.2539 31.7985 10.8464 32.2875 8.43896C32.5383 7.18508 32.7954 5.93119 33.0461 4.67731C33.09 4.45161 33.2029 4.3701 33.4286 4.3701C34.4505 4.37637 35.4787 4.37637 36.5006 4.3701C36.7263 4.3701 36.8454 4.40145 36.7953 4.68984C36.6824 5.32306 36.6072 5.96254 36.5194 6.58321C37.021 6.13808 37.4974 5.64907 38.0303 5.25409C39.3156 4.29487 40.7701 3.94378 42.375 4.16321C43.7292 4.35129 44.444 5.61772 44.6195 6.48917C44.7825 7.29793 44.6383 8.09414 44.5317 8.88409C44.0803 12.1379 43.3907 15.3416 42.676 18.539C42.5945 18.9152 42.513 19.2913 42.4127 19.6612C42.3876 19.7553 42.2685 19.8869 42.187 19.8869C40.977 19.8995 39.7607 19.8932 38.5507 19.8932C38.5319 19.8932 38.5131 19.8744 38.4567 19.8493C38.5632 19.3415 38.6636 18.8274 38.7764 18.3133C39.3406 15.7491 39.93 13.1912 40.4566 10.627C40.6071 9.89347 40.6321 9.12233 40.6384 8.36373C40.651 7.44212 39.8234 7.21015 39.0836 7.37943C38.3313 7.5487 37.7607 8.02518 37.2655 8.5957C36.4442 9.52984 36.0116 10.6583 35.648 11.8182C35.0273 13.7993 34.6135 15.8306 34.2687 17.8744C34.1621 18.5265 34.0555 19.191 33.9427 19.8744ZM12.6642 10.9467C12.9652 10.9217 13.2661 10.8966 13.567 10.8715C14.4761 10.7837 15.3601 10.5956 16.1814 10.1819C16.871 9.83704 17.4541 9.36057 17.5293 8.53927C17.6171 7.59259 17.335 6.98445 16.4071 6.82145C15.5858 6.68352 14.8272 6.79637 14.1376 7.26031C13.0529 7.98756 12.3758 9.00948 12.1063 10.2696C11.9495 10.9843 11.868 10.9342 12.6642 10.9467Z"
                fill="#858782"
              ></path>
              <path
                d="M90.1158 24.7583C90.4606 24.3445 90.8117 23.937 91.1565 23.5295C91.6079 22.9966 92.0593 22.4574 92.5295 21.9434C92.6361 21.8305 92.8179 21.749 92.9747 21.7302C93.821 21.6236 94.6862 21.6111 95.52 21.4355C97.3633 21.0406 98.3287 19.7616 98.7488 17.9999C98.7801 17.8682 98.799 17.7366 98.8115 17.6676C98.3664 18.0814 97.915 18.5579 97.4009 18.9591C96.4479 19.7052 95.3508 20.119 94.1345 20.1378C92.2035 20.1628 90.8117 19.1033 90.2976 17.235C90.0531 16.3448 89.9716 15.4357 90.0468 14.489C89.9967 14.5893 89.9465 14.6834 89.9026 14.7837C89.2506 16.2821 88.3666 17.6049 87.0312 18.5829C85.3886 19.7804 83.5642 20.3133 81.5329 20.1566C80.7367 20.0939 79.9593 19.9748 79.2383 19.6049C77.7776 18.8463 76.8936 17.6425 76.7118 16.025C76.392 13.1223 76.9061 10.3637 78.4421 7.85595C79.7085 5.79331 81.5643 4.55196 83.9718 4.20088C85.0501 4.04414 86.141 4.0316 87.2131 4.2573C88.8619 4.60212 89.9904 5.58642 90.5108 7.17885C90.7741 7.97507 90.912 8.80891 91.0938 9.58004C91.0876 9.58631 91.1314 9.51108 91.1628 9.43585C92.448 6.43279 94.7113 4.68362 97.9275 4.18834C99.2503 3.98145 100.586 3.97518 101.915 4.16953C102.843 4.30746 103.764 4.47046 104.686 4.62093C104.962 4.66481 105.031 4.7902 104.987 5.06606C104.347 9.42958 103.319 13.7116 102.347 18.0062C101.551 21.5358 99.1312 23.843 95.6893 24.4574C94.9809 24.5828 94.2662 24.6455 93.5452 24.6956C92.4919 24.7646 91.4386 24.7959 90.3854 24.8461C90.3164 24.8524 90.2412 24.8461 90.1722 24.8461C90.1471 24.8022 90.1346 24.7771 90.1158 24.7583ZM82.7868 17.2601C83.815 17.2476 84.7366 16.6143 85.3385 15.5548C86.5109 13.4859 86.9685 11.2226 86.8933 8.85906C86.8494 7.44844 85.7397 6.67103 84.3605 6.99704C83.069 7.30424 82.2351 8.15688 81.6646 9.29165C80.649 11.2979 80.417 13.4483 80.6991 15.6489C80.837 16.7272 81.5079 17.2601 82.7868 17.2601ZM100.818 6.97823C100.134 6.94689 99.5325 6.88419 98.9306 6.903C97.9275 6.94062 97.0372 7.26036 96.3163 8.00015C95.2003 9.14745 94.5295 10.5267 94.1533 12.0627C93.8273 13.3856 93.7709 14.721 94.0843 16.0564C94.2912 16.9278 94.8994 17.3855 95.6768 17.2476C95.9652 17.1974 96.2536 17.0595 96.5043 16.9027C97.5388 16.2633 98.2472 15.3291 98.7864 14.257C99.5764 12.6897 100.09 11.0346 100.429 9.323C100.579 8.58947 100.68 7.83087 100.818 6.97823Z"
                fill="#858782"
              ></path>
              <path
                d="M65.2763 0C64.7998 2.11907 64.3359 4.1629 63.872 6.213C64.2607 5.87445 64.6118 5.51083 65.0193 5.22243C66.4612 4.20678 68.0474 3.83689 69.759 4.35098C71.1821 4.7773 71.9219 5.84937 72.1288 7.26C72.2604 8.16279 72.3043 9.09067 72.2542 10.006C72.1037 12.8461 71.2887 15.4479 69.2386 17.523C67.2763 19.5167 64.8437 20.2879 62.0852 20.081C60.6746 19.9744 59.2639 19.8302 57.8533 19.6735C57.0884 19.5857 57.1825 19.6735 57.3518 18.965C58.7122 13.1721 60.079 7.37285 61.4332 1.5799C61.5021 1.2915 61.6212 1.1473 61.9096 1.05953C62.9002 0.76487 63.872 0.43259 64.8563 0.11285C64.9691 0.087772 65.0757 0.0564248 65.2763 0ZM61.4269 17.3162C62.2231 17.3162 62.9253 17.3663 63.6149 17.3036C65.1509 17.172 66.2418 16.3381 67.0192 15.0466C68.1101 13.2285 68.4424 11.2348 68.3859 9.15963C68.3734 8.67062 68.2418 8.16906 68.0913 7.69886C67.9471 7.23492 67.5709 7.02176 67.0756 7.01549C66.3985 7.00295 65.8468 7.29761 65.339 7.70512C64.7309 8.20041 64.2795 8.82735 63.8908 9.49818C63.245 10.6267 62.7811 11.8367 62.4425 13.0843C62.0789 14.451 61.778 15.8366 61.4269 17.3162Z"
                fill="#858782"
              ></path>
              <path
                d="M44.2441 14.7646C44.288 12.3195 44.7394 10.1315 45.8993 8.13152C47.1782 5.91841 49.0653 4.55794 51.6107 4.18178C52.6953 4.02504 53.7987 4.0125 54.8834 4.25074C56.8394 4.67706 57.9366 5.95602 58.3503 7.85566C58.8017 9.89949 58.4193 11.8744 57.8174 13.8242C57.3786 15.2473 56.7579 16.5702 55.6984 17.6485C53.8928 19.4729 51.711 20.3193 49.1343 20.1375C48.1124 20.0622 47.1657 19.8365 46.3068 19.2472C45.1344 18.4447 44.52 17.3225 44.3319 15.9432C44.2755 15.5044 44.2692 15.053 44.2441 14.7646ZM48.219 14.1314C48.2566 14.6204 48.2754 15.1094 48.3318 15.5921C48.4321 16.5137 48.9399 17.1031 49.8239 17.2285C50.1938 17.2786 50.5951 17.2347 50.965 17.1532C52.0496 16.9024 52.7329 16.1438 53.1969 15.1972C54.1874 13.1784 54.6326 11.028 54.5448 8.78354C54.5072 7.81178 53.8991 7.11587 53.0276 6.9654C52.4257 6.85882 51.8427 6.97794 51.2972 7.23499C50.2503 7.73654 49.6045 8.60172 49.1406 9.62364C48.4948 11.0593 48.2378 12.5703 48.219 14.1314Z"
                fill="#858782"
              ></path>
              <path
                d="M79.1586 0.0439453C79.027 0.64581 78.9016 1.2226 78.7699 1.79938C77.4408 7.71145 76.1054 13.6173 74.7888 19.5293C74.7261 19.7989 74.6321 19.8992 74.3437 19.8929C73.2027 19.8741 72.0679 19.8867 70.9269 19.8929C70.8642 19.8929 70.8078 19.8804 70.7012 19.8741C70.7639 19.6046 70.814 19.3538 70.8767 19.103C72.35 13.2223 73.8296 7.34783 75.3155 1.47337C75.3468 1.34799 75.4659 1.18498 75.5788 1.14109C76.7073 0.764929 77.842 0.413841 78.9705 0.0564842C79.0144 0.0439453 79.0646 0.0502147 79.1586 0.0439453Z"
                fill="#858782"
              ></path>
            </svg>