<svg
              width="117"
              height="22"
              viewBox="0 0 117 22"
              fill="none"
              xmlns="http://www.w3.org/2000/svg"
            >
              <g clip-path="url(#clip0_3202_51697)">
                <path
                  fill-rule="evenodd"
                  clip-rule="evenodd"
                  d="M79.1951 14.4565C79.1951 16.9242 77.6641 18.3535 75.6303 18.3535C73.5661 18.3535 72.0312 16.9235 72.0312 14.4549V3.47463H68.3987V15.7075C68.3987 19.8199 71.6047 22 74.4562 22C76.3437 22 77.9822 21.285 79.1234 19.8541H79.1951V21.7864H82.8278V3.47417H79.1951V14.4565ZM62.6031 0H58.9688V17.314C58.9688 20.1786 60.8197 21.7869 63.3487 21.7869H65.8509V18.354H63.888C62.9968 18.354 62.606 17.9958 62.606 16.995V7.12181H65.8548V3.44208H62.6053V0H62.6031ZM96.1281 5.58869C94.773 4.30077 93.3121 3.4414 91.4591 3.4414C89.2516 3.4414 87.6486 4.44515 86.6175 5.80227C85.6155 7.0879 85.3378 8.2681 85.3378 12.7048C85.3378 17.1712 85.6189 18.3491 86.6207 19.6371C87.6536 20.9914 89.2601 21.9952 91.4675 21.9952C93.3231 21.9952 94.9935 21.1381 96.1384 19.8846V21.7798H99.7718V0.0252083H96.1384V5.58708L96.1316 5.58869H96.1281ZM92.5633 18.3533C89.1401 18.3533 88.966 15.5258 88.966 12.7048C88.966 9.91123 89.1403 7.0879 92.5628 7.0879C95.9478 7.0879 96.1277 10.09 96.1277 12.7002C96.1281 15.3425 95.9471 18.3491 92.5628 18.3491V18.3514L92.5633 18.3533ZM115.33 5.76515C114.332 4.65208 112.656 3.44208 109.842 3.44208C107.026 3.44208 105.352 4.65529 104.355 5.76492C102.964 7.30171 102.395 8.80298 102.395 12.7013C102.395 16.6322 102.964 18.1367 104.353 19.6735C105.349 20.7831 107.024 21.9995 109.84 21.9995C112.653 21.9995 114.328 20.7831 115.326 19.6735C116.716 18.1367 117.285 16.6325 117.285 12.7013C117.285 8.80321 116.714 7.2985 115.325 5.76171V5.76492L115.33 5.76515ZM112.763 17.0271C112.228 17.7776 111.089 18.3503 109.842 18.3503C108.596 18.3503 107.453 17.7774 106.92 17.0239C106.244 16.0598 106.029 15.3448 106.029 12.6981C106.029 10.0872 106.246 9.36902 106.921 8.40492C107.458 7.65325 108.598 7.08171 109.843 7.08171C111.091 7.08171 112.231 7.65348 112.765 8.40492C113.443 9.3681 113.656 10.0852 113.656 12.7286C113.656 15.3411 113.446 16.0577 112.767 17.0209L112.762 17.0271H112.763Z"
                  fill="#858782"
                ></path>
                <path
                  fill-rule="evenodd"
                  clip-rule="evenodd"
                  d="M3.66693 0H0.03125V17.3135C0.03125 20.1786 1.88223 21.7864 4.41189 21.7864H6.91643V18.3535H4.94822C4.05815 18.3535 3.6667 17.996 3.6667 16.995V7.12181H6.9162V3.44208H3.66693V0ZM33.3497 18.354C30.3934 18.354 28.6464 16.6723 28.6464 12.738C28.6453 8.77158 30.3918 7.09133 33.3493 7.09133C34.8456 7.09133 36.1287 7.87623 37.0192 8.9854L39.6924 6.58625C38.1248 4.76254 35.9528 3.43979 33.2087 3.43979C29.0429 3.43979 25.0155 6.08667 25.0155 12.7348C25.0121 19.3536 29.039 22 33.2056 22C35.9493 22 38.1243 20.6747 39.6908 18.8531L37.0195 16.459C36.1283 17.5704 34.8456 18.3542 33.3495 18.3542L33.3497 18.354ZM49.9126 3.26562C47.9832 3.26562 46.3374 3.98383 45.1937 5.41842H45.1215V0H41.4726V21.6746H45.1183V10.835C45.1183 8.36 46.6535 6.92679 48.7252 6.92679C50.7647 6.92679 52.3031 8.36 52.3031 10.835V21.6732H55.9488V9.58192C55.9488 5.45279 52.729 3.26562 49.9046 3.26562H49.9114H49.9126ZM15.7095 3.44208C12.2155 3.44208 8.26215 5.73077 8.26215 12.7728C8.26238 20.2125 12.5745 22 16.2787 22C18.701 22 21.0181 21.1434 22.7987 19.069L20.1612 16.814C19.0936 17.9243 17.5972 18.5662 16.2083 18.5662C13.7145 18.5662 11.8978 17.0644 11.8978 14.0974H23.1545V11.0953C23.1545 6.41002 19.6994 3.44231 15.7072 3.44231L15.7095 3.44208ZM11.8981 11.0953C11.9689 8.34075 13.5722 6.87752 15.7086 6.87752C17.8463 6.87752 19.4146 8.3419 19.5213 11.0965H11.8981V11.0953Z"
                  fill="#858782"
                ></path>
              </g>
              <defs>
                <clippath id="clip0_3202_51697">
                  <rect width="117" height="22" fill="white"></rect>
                </clippath>
              </defs>
            </svg>