<svg
              width="125"
              height="24"
              viewBox="0 0 125 24"
              fill="none"
              xmlns="http://www.w3.org/2000/svg"
            >
              <g clip-path="url(#clip0_3202_51677)">
                <path
                  d="M110.184 4.63003C110.184 5.27818 110.184 10.0004 110.184 10.0004L109.721 9.63003C108.61 8.88929 107.314 8.7041 106.018 8.88929C104.721 9.07447 103.61 9.72262 102.777 10.7411C101.295 12.6856 101.203 15.3708 102.592 17.4078C103.24 18.3337 104.166 18.9819 105.184 19.3523C105.74 19.5374 106.295 19.63 106.851 19.63C107.87 19.63 108.888 19.3523 109.721 18.7967L110.184 18.5189V19.63H112.592V3.7041L110.184 4.63003ZM107.036 17.3152C106.758 17.3152 106.388 17.2226 106.11 17.13L105.925 17.0374C105.462 16.8523 105.092 16.5745 104.814 16.2041C103.703 14.9078 103.795 12.9634 105.092 11.8523C106.388 10.7411 108.333 10.8337 109.444 12.13C110.555 13.4263 110.462 15.3708 109.166 16.4819C108.61 17.0374 107.87 17.3152 107.036 17.3152Z"
                  fill="#858782"
                ></path>
                <path
                  d="M86.2967 14.444C86.4819 15.9255 85.3707 17.2218 83.9819 17.3144C82.5004 17.4996 81.2041 16.3885 81.1115 14.9996C81.1115 14.8144 81.1115 14.6292 81.1115 14.444V8.7959H78.7041V14.444C78.6115 17.2218 80.7411 19.5366 83.4263 19.6292C86.1115 19.7218 88.5189 17.5922 88.6115 14.907C88.6115 14.7218 88.6115 14.6292 88.6115 14.444V8.7959H86.2967V14.444Z"
                  fill="#858782"
                ></path>
                <path
                  d="M119.537 8.7959C116.574 8.7959 114.074 11.2033 114.167 14.2589C114.167 17.2218 116.574 19.7218 119.63 19.6292C122.592 19.6292 125.092 17.2218 125 14.1663C125 11.2033 122.685 8.7959 119.722 8.7959C119.63 8.7959 119.63 8.7959 119.537 8.7959ZM119.537 17.3144C117.778 17.3144 116.389 15.9255 116.481 14.1663C116.481 12.4996 117.87 11.1107 119.63 11.1107C121.389 11.1107 122.685 12.4996 122.685 14.2589C122.592 15.9255 121.296 17.3144 119.537 17.3144Z"
                  fill="#858782"
                ></path>
                <path
                  d="M72.2215 8.79586C70.74 8.79586 69.3511 9.35141 68.4252 10.4625C67.4993 9.35141 66.1104 8.70327 64.6289 8.79586C61.9437 8.70327 59.7215 10.8329 59.6289 13.5181C59.6289 13.7033 59.6289 13.7959 59.6289 13.981V19.6292H62.0363V13.981C61.8511 12.4996 62.8696 11.2033 64.3511 11.0181C65.8326 10.8329 67.1289 11.8514 67.3141 13.3329C67.3141 13.5181 67.3141 13.7959 67.3141 13.981V19.6292H69.7215V13.981C69.5363 12.4996 70.5548 11.2033 72.0363 11.0181C73.5178 10.8329 74.8141 11.8514 74.9993 13.3329C74.9993 13.5181 74.9993 13.7959 74.9993 13.981V19.6292H77.4067V13.981C77.5919 11.2959 75.5548 8.98104 72.8696 8.79586C72.5919 8.79586 72.4067 8.79586 72.2215 8.79586Z"
                  fill="#858782"
                ></path>
                <path
                  d="M31.8514 15.4634V10.1856H35.1848V8.79669H31.8514V3.7041H30.2773V15.4634C30.2773 18.2411 31.481 19.63 33.981 19.63H35.9255V18.2411H34.2588C32.5922 18.2411 31.8514 17.4078 31.8514 15.4634Z"
                  fill="#858782"
                ></path>
                <path
                  d="M42.129 8.79663C39.2586 8.70404 36.8512 11.0189 36.7586 13.9818C36.7586 14.0744 36.7586 14.167 36.7586 14.2596C36.6661 17.13 38.8883 19.63 41.8512 19.7226C41.9438 19.7226 42.0364 19.7226 42.129 19.7226C44.1661 19.9077 46.0179 18.704 46.7586 16.8522H45.092C44.4438 17.8707 43.3327 18.4263 42.129 18.3337C40.1846 18.4263 38.4253 16.9448 38.2401 14.9077H47.0364C47.0364 14.7226 47.0364 14.4448 47.0364 14.2596C47.0364 11.0189 44.9994 8.79663 42.129 8.79663ZM38.2401 13.6114C38.4253 11.667 39.9994 10.1855 42.0364 10.1855C43.9809 10.1855 45.5549 11.667 45.5549 13.6114V13.704L38.2401 13.6114Z"
                  fill="#858782"
                ></path>
                <path
                  d="M53.9824 18.2411C51.8528 18.2411 50.1861 16.5744 50.1861 14.4448C50.1861 14.3522 50.1861 14.2596 50.1861 14.167C50.0935 12.13 51.6676 10.2781 53.7047 10.1855C53.7972 10.1855 53.8898 10.1855 53.9824 10.1855C55.0935 10.1855 56.1121 10.6485 56.7602 11.4818L58.0565 10.8337C57.1306 9.53737 55.5565 8.79663 53.9824 8.79663C51.1121 8.70404 48.7047 11.0189 48.6121 13.9818C48.6121 14.0744 48.6121 14.167 48.6121 14.2596C48.5195 17.13 50.8343 19.63 53.7047 19.7226C53.7972 19.7226 53.8898 19.7226 53.9824 19.7226C55.6491 19.8151 57.1306 18.9818 58.1491 17.6855L56.8528 17.0374C56.1121 17.7781 55.0935 18.2411 53.9824 18.2411Z"
                  fill="#858782"
                ></path>
                <path
                  d="M95.2773 8.79588C92.5922 8.70328 90.3699 10.8329 90.2773 13.5181C90.2773 13.7033 90.2773 13.7959 90.2773 13.9811V19.6292H92.5922V13.9811C92.407 12.4996 93.4255 11.2033 94.907 11.0181C96.3885 10.8329 97.6848 11.8514 97.8699 13.3329C97.8699 13.5181 97.8699 13.7959 97.8699 13.9811V19.6292H100.185V13.9811C100.37 11.2959 98.3329 8.98106 95.6477 8.79588C95.5551 8.79588 95.3699 8.79588 95.2773 8.79588Z"
                  fill="#858782"
                ></path>
                <path
                  d="M6.38867 15.1855V21.667C6.38867 22.593 7.12941 23.3337 8.05534 23.3337H13.5183C14.4442 23.3337 15.185 22.593 15.185 21.667V15.1855L10.7405 19.63L6.38867 15.1855Z"
                  fill="#858782"
                ></path>
                <path
                  d="M20 0H1.48148C0.648148 0 0 0.648148 0 1.48148V7.31481C0 8.14815 0.648148 8.7963 1.48148 8.7963H7.12963L10.7407 12.4074L14.3519 8.7963H20C20.8333 8.7963 21.4815 8.14815 21.4815 7.31481V1.48148C21.4815 0.648148 20.8333 0 20 0Z"
                  fill="#858782"
                ></path>
              </g>
              <defs>
                <clippath id="clip0_3202_51677">
                  <rect width="125" height="23.3333" fill="white"></rect>
                </clippath>
              </defs>
            </svg>