<svg
                  width="24"
                  height="19"
                  viewBox="0 0 24 19"
                  fill="none"
                  xmlns="http://www.w3.org/2000/svg"
                >
                  <g clip-path="url(#clip0_3202_52124)">
                    <path
                      fill-rule="evenodd"
                      clip-rule="evenodd"
                      d="M21.0015 4.60305C21.0159 4.80488 21.0159 5.00676 21.0159 5.2086C21.0159 11.3648 16.3303 18.4582 7.76628 18.4582C5.12788 18.4582 2.67694 17.6941 0.615234 16.3677C0.990101 16.4109 1.3505 16.4254 1.73979 16.4254C3.91679 16.4254 5.92084 15.6901 7.52118 14.4358C5.4739 14.3925 3.75822 13.0517 3.1671 11.2062C3.45547 11.2495 3.7438 11.2783 4.0466 11.2783C4.46469 11.2783 4.88282 11.2206 5.27207 11.1197C3.1383 10.6872 1.53791 8.81294 1.53791 6.54941V6.49176C2.15784 6.83778 2.87877 7.05404 3.64284 7.08284C2.38852 6.24661 1.56676 4.81931 1.56676 3.20454C1.56676 2.33951 1.79739 1.54655 2.20111 0.854513C4.49349 3.68033 7.93927 5.52573 11.8031 5.7276C11.731 5.38158 11.6878 5.02118 11.6878 4.66074C11.6878 2.09441 13.7639 0.00390625 16.3446 0.00390625C17.6854 0.00390625 18.8965 0.566184 19.7471 1.47448C20.7996 1.27265 21.8088 0.883359 22.7027 0.349927C22.3566 1.43126 21.6214 2.33956 20.6554 2.91621C21.5926 2.81534 22.5009 2.55577 23.337 2.19537C22.7028 3.11805 21.9098 3.93981 21.0015 4.60305Z"
                      fill="#454843"
                    ></path>
                  </g>
                  <defs>
                    <clippath id="clip0_3202_52124">
                      <rect
                        width="23.0769"
                        height="18.4615"
                        fill="white"
                        transform="translate(0.615234)"
                      ></rect>
                    </clippath>
                  </defs></svg>